# xmcd
#
# Track frame offsets: 
#        150
#        15728
#        36514
#        56781
#        76980
#        96101
#        120835
#        138744
#        159112
#        181073
#        201418
#        224652
#        240239
#        261016
#        278064
#
# Disc length: 3917 seconds
#
# Revision: 0
# Processed by: cddbd v1.5.1PL2 Copyright (c) Steve Scherf et al.
# Submitted via: ExactAudioCopy v0.95b3
#
DISCID=cd0f4b0f
DTITLE=christine collister and dave kelly - live
DYEAR=2006
DGENRE=Blues
TTITLE0=mocking bird
TTITLE1=pancho and lefty
TTITLE2=boulder to birmingham
TTITLE3=world in motion
TTITLE4=sad and beautiful world
TTITLE5=who knows where the time goes
TTITLE6=any how i love you
TTITLE7=119 in the shade
TTITLE8=kicking in my stall
TTITLE9=guilty
TTITLE10=baby what do you want
TTITLE11=lost and found
TTITLE12=private number
TTITLE13=clapping song
TTITLE14=let it be
EXTD=
EXTT0=
EXTT1=
EXTT2=
EXTT3=
EXTT4=
EXTT5=
EXTT6=
EXTT7=
EXTT8=
EXTT9=
EXTT10=
EXTT11=
EXTT12=
EXTT13=
EXTT14=
PLAYORDER=
